# xmcd CD database file
#
# Track frame offsets:
#	150
#	36351
#	58941
#	80783
#	98285
#	127585
#	156032
#	174135
#
# Disc length: 2743 seconds
#
# Revision: 0
# Processed by: cddbd v1.5.2PL0 Copyright (c) Steve Scherf et al.
# Submitted via: CD2WAV32(JP) R3.22
#
DISCID=550ab508
DTITLE=山岸潤史 - ALL THE SAME
DYEAR=1980
DGENRE=Blues
TTITLE0=MORE CORKSCREW
TTITLE1=MELLOW SYNDICATE
TTITLE2=SKIN GAME
TTITLE3=CUTTIN' IN
TTITLE4=DEAR MY BUDDY(KEEP ON MOVIN')
TTITLE5=IT'S ALL THE SAME TO ME
TTITLE6=POP
TTITLE7=MY LOVE
EXTD=
EXTT0=
EXTT1=
EXTT2=
EXTT3=
EXTT4=
EXTT5=
EXTT6=
EXTT7=
PLAYORDER=
